<mxfile host="app.diagrams.net" modified="2023-07-01T14:00:47.291Z" agent="Mozilla/5.0 (Windows NT 10.0; Win64; x64) AppleWebKit/537.36 (KHTML, like Gecko) Chrome/114.0.0.0 Safari/537.36" etag="Euukdx3BY6msYHkw7XXa" version="21.5.2" type="github">
  <diagram name="Página-1" id="LYa6vVmkQ6kkYleELkHt">
    <mxGraphModel dx="880" dy="484" grid="1" gridSize="10" guides="1" tooltips="1" connect="1" arrows="1" fold="1" page="1" pageScale="1" pageWidth="827" pageHeight="1169" math="0" shadow="0">
      <root>
        <mxCell id="0" />
        <mxCell id="1" parent="0" />
        <mxCell id="S2bd-8xSc3iq0MVG18dw-1" value="Jogo" style="swimlane;fontStyle=0;childLayout=stackLayout;horizontal=1;startSize=26;horizontalStack=0;resizeParent=1;resizeParentMax=0;resizeLast=0;collapsible=1;marginBottom=0;align=center;fontSize=14;" parent="1" vertex="1">
          <mxGeometry x="630" y="40" width="160" height="130" as="geometry" />
        </mxCell>
        <mxCell id="S2bd-8xSc3iq0MVG18dw-5" value="Compra" style="swimlane;fontStyle=0;childLayout=stackLayout;horizontal=1;startSize=26;horizontalStack=0;resizeParent=1;resizeParentMax=0;resizeLast=0;collapsible=1;marginBottom=0;align=center;fontSize=14;" parent="1" vertex="1">
          <mxGeometry x="350" y="40" width="160" height="110" as="geometry" />
        </mxCell>
        <mxCell id="S2bd-8xSc3iq0MVG18dw-38" value="ID&lt;br&gt;Data&lt;br&gt;Preço_Total&lt;br&gt;FK_usuario&lt;br&gt;&lt;br&gt;" style="text;strokeColor=none;fillColor=none;spacingLeft=4;spacingRight=4;overflow=hidden;rotatable=0;points=[[0,0.5],[1,0.5]];portConstraint=eastwest;fontSize=12;whiteSpace=wrap;html=1;" parent="S2bd-8xSc3iq0MVG18dw-5" vertex="1">
          <mxGeometry y="26" width="160" height="84" as="geometry" />
        </mxCell>
        <mxCell id="S2bd-8xSc3iq0MVG18dw-11" value="Usuario" style="swimlane;fontStyle=0;childLayout=stackLayout;horizontal=1;startSize=26;horizontalStack=0;resizeParent=1;resizeParentMax=0;resizeLast=0;collapsible=1;marginBottom=0;align=center;fontSize=14;" parent="1" vertex="1">
          <mxGeometry x="60" y="40" width="160" height="110" as="geometry" />
        </mxCell>
        <mxCell id="S2bd-8xSc3iq0MVG18dw-12" value="ID&lt;br&gt;Nome&lt;br&gt;Email&lt;br&gt;Login&lt;br&gt;Senha" style="text;strokeColor=none;fillColor=none;spacingLeft=4;spacingRight=4;overflow=hidden;rotatable=0;points=[[0,0.5],[1,0.5]];portConstraint=eastwest;fontSize=12;whiteSpace=wrap;html=1;" parent="S2bd-8xSc3iq0MVG18dw-11" vertex="1">
          <mxGeometry y="26" width="160" height="84" as="geometry" />
        </mxCell>
        <mxCell id="S2bd-8xSc3iq0MVG18dw-36" style="edgeStyle=orthogonalEdgeStyle;shape=connector;rounded=0;orthogonalLoop=1;jettySize=auto;html=1;exitX=0.5;exitY=0;exitDx=0;exitDy=0;entryX=0.475;entryY=1.048;entryDx=0;entryDy=0;entryPerimeter=0;labelBackgroundColor=default;strokeColor=default;fontFamily=Helvetica;fontSize=11;fontColor=default;endArrow=none;endFill=0;" parent="1" source="S2bd-8xSc3iq0MVG18dw-15" target="S2bd-8xSc3iq0MVG18dw-12" edge="1">
          <mxGeometry relative="1" as="geometry">
            <Array as="points">
              <mxPoint x="140" y="150" />
              <mxPoint x="136" y="150" />
            </Array>
          </mxGeometry>
        </mxCell>
        <mxCell id="S2bd-8xSc3iq0MVG18dw-15" value="Lista de desejos" style="swimlane;fontStyle=0;childLayout=stackLayout;horizontal=1;startSize=26;horizontalStack=0;resizeParent=1;resizeParentMax=0;resizeLast=0;collapsible=1;marginBottom=0;align=center;fontSize=14;" parent="1" vertex="1">
          <mxGeometry x="60" y="280" width="160" height="130" as="geometry" />
        </mxCell>
        <mxCell id="S2bd-8xSc3iq0MVG18dw-19" style="edgeStyle=orthogonalEdgeStyle;rounded=0;orthogonalLoop=1;jettySize=auto;html=1;exitX=1;exitY=0.5;exitDx=0;exitDy=0;entryX=0;entryY=0.5;entryDx=0;entryDy=0;endArrow=none;endFill=0;" parent="1" edge="1">
          <mxGeometry relative="1" as="geometry">
            <mxPoint x="220" y="111" as="sourcePoint" />
            <mxPoint x="350" y="111" as="targetPoint" />
          </mxGeometry>
        </mxCell>
        <mxCell id="S2bd-8xSc3iq0MVG18dw-20" style="edgeStyle=orthogonalEdgeStyle;shape=connector;rounded=0;orthogonalLoop=1;jettySize=auto;html=1;exitX=1;exitY=0.5;exitDx=0;exitDy=0;labelBackgroundColor=default;strokeColor=default;fontFamily=Helvetica;fontSize=11;fontColor=default;endArrow=none;endFill=0;" parent="1" edge="1">
          <mxGeometry relative="1" as="geometry">
            <mxPoint x="510" y="111" as="sourcePoint" />
            <mxPoint x="630" y="111" as="targetPoint" />
          </mxGeometry>
        </mxCell>
        <mxCell id="S2bd-8xSc3iq0MVG18dw-22" value="(1,N)" style="text;html=1;strokeColor=none;fillColor=none;align=center;verticalAlign=middle;whiteSpace=wrap;rounded=0;fontSize=11;fontFamily=Helvetica;fontColor=default;" parent="1" vertex="1">
          <mxGeometry x="200" y="63" width="90" height="70" as="geometry" />
        </mxCell>
        <mxCell id="S2bd-8xSc3iq0MVG18dw-25" value="(1,1)" style="text;html=1;strokeColor=none;fillColor=none;align=center;verticalAlign=middle;whiteSpace=wrap;rounded=0;fontSize=11;fontFamily=Helvetica;fontColor=default;" parent="1" vertex="1">
          <mxGeometry x="290" y="73" width="80" height="50" as="geometry" />
        </mxCell>
        <mxCell id="S2bd-8xSc3iq0MVG18dw-28" value="(N,N)" style="text;html=1;strokeColor=none;fillColor=none;align=center;verticalAlign=middle;whiteSpace=wrap;rounded=0;fontSize=11;fontFamily=Helvetica;fontColor=default;" parent="1" vertex="1">
          <mxGeometry x="490" y="83" width="90" height="30" as="geometry" />
        </mxCell>
        <mxCell id="5jjlF3I3PaWTRxay9Ilp-3" style="edgeStyle=orthogonalEdgeStyle;rounded=0;orthogonalLoop=1;jettySize=auto;html=1;exitX=0;exitY=1;exitDx=0;exitDy=0;endArrow=none;endFill=0;" edge="1" parent="1" source="S2bd-8xSc3iq0MVG18dw-29">
          <mxGeometry relative="1" as="geometry">
            <mxPoint x="570" y="230" as="targetPoint" />
          </mxGeometry>
        </mxCell>
        <mxCell id="S2bd-8xSc3iq0MVG18dw-29" value="(N,N)" style="text;html=1;strokeColor=none;fillColor=none;align=center;verticalAlign=middle;whiteSpace=wrap;rounded=0;fontSize=11;fontFamily=Helvetica;fontColor=default;" parent="1" vertex="1">
          <mxGeometry x="570" y="83" width="80" height="30" as="geometry" />
        </mxCell>
        <mxCell id="S2bd-8xSc3iq0MVG18dw-31" value="(1,1)" style="text;html=1;strokeColor=none;fillColor=none;align=center;verticalAlign=middle;whiteSpace=wrap;rounded=0;fontSize=11;fontFamily=Helvetica;fontColor=default;" parent="1" vertex="1">
          <mxGeometry x="130" y="250" width="60" height="30" as="geometry" />
        </mxCell>
        <mxCell id="S2bd-8xSc3iq0MVG18dw-32" value="(1,1)" style="text;html=1;strokeColor=none;fillColor=none;align=center;verticalAlign=middle;whiteSpace=wrap;rounded=0;fontSize=11;fontFamily=Helvetica;fontColor=default;" parent="1" vertex="1">
          <mxGeometry x="130" y="150" width="60" height="30" as="geometry" />
        </mxCell>
        <mxCell id="5jjlF3I3PaWTRxay9Ilp-2" value="ID&lt;br&gt;Nome&lt;br&gt;Genero&lt;br&gt;Desnvol.&lt;br&gt;AnoLançamento" style="text;html=1;strokeColor=none;fillColor=none;align=left;verticalAlign=middle;whiteSpace=wrap;rounded=0;" vertex="1" parent="1">
          <mxGeometry x="630" y="63" width="160" height="87" as="geometry" />
        </mxCell>
      </root>
    </mxGraphModel>
  </diagram>
</mxfile>
